<?xml version="1.0" encoding="UTF-8"?>
<svg id="Logo" xmlns="http://www.w3.org/2000/svg" xmlns:xlink="http://www.w3.org/1999/xlink" viewBox="0 0 934.04 122.17">
  <defs>
    <style>
      .cls-1 {
        fill: url(#Degradado_sin_nombre_3);
      }

      .cls-1, .cls-2 {
        stroke-width: 0px;
      }

      .cls-2 {
        fill: none;
      }

      .cls-3 {
        clip-path: url(#clippath);
      }
    </style>
    <clipPath id="clippath">
      <path class="cls-2" d="M934.04,122.17h-34.38l-36-84.05-36,84.05h-34.38L845.53.17h36.26l52.25,122ZM777.17,122.17h-36.38l-22.33-33.12h-18.03v33.12h-34.39V.17h57.99c24.54,0,44.44,19.9,44.44,44.44,0,15.09-7.52,28.42-19.02,36.45l27.72,41.11ZM724.03,61.17c3.68,0,7.08-1.2,9.83-3.23,4.08-3.02,6.73-7.86,6.73-13.33,0-9.15-7.41-16.56-16.56-16.56h-23.6v33.12h23.6ZM589.19.17h-36.25l-52.26,122h34.38l36-84.05,36,84.05h34.39L589.19.17ZM465.89,81.83l19.3,17.35c-11.17,14.01-28.38,22.99-47.7,22.99-33.69,0-61-27.31-61-61S403.8.17,437.49.17c19.38,0,36.64,9.03,47.81,23.12l-19.41,17.44-.11.09c-6.33-8.78-16.64-14.5-28.29-14.5-19.25,0-34.85,15.61-34.85,34.85s15.6,34.85,34.85,34.85c11.59,0,21.86-5.66,28.19-14.36l.21.17ZM302.81,122.17h34.38V.17h-34.38v122ZM195.4,122.17h34.38L282.04.17h-34.38l-52.26,122ZM181.21,0h-37.38l35.01,81.75,18.7-43.64L181.21,0ZM88.51.17h-36.25L0,122.17h34.38l36-84.05,36,84.05h34.39L88.51.17Z"/>
    </clipPath>
    <linearGradient id="Degradado_sin_nombre_3" data-name="Degradado sin nombre 3" x1="0" y1="61.17" x2="934.04" y2="61.17" gradientUnits="userSpaceOnUse">
      <stop offset="0" stop-color="#c8533e"/>
      <stop offset="1" stop-color="#4b1d40"/>
    </linearGradient>
  </defs>
  <g class="cls-3">
    <rect class="cls-1" y=".17" width="934.04" height="122"/>
  </g>
</svg>